<svg width="24" height="24" viewBox="0 0 24 24" fill="none" xmlns="http://www.w3.org/2000/svg">
<g clip-path="url(#clip0_2_58611)">
<path d="M14.3328 1.11534C14.0344 0.598546 13.9536 -0.0156033 14.108 -0.592007C14.2625 -1.16841 14.6396 -1.65985 15.1564 -1.95822C15.6732 -2.25659 16.2873 -2.33744 16.8637 -2.183C17.4401 -2.02855 17.9316 -1.65145 18.2299 -1.13466L26.4799 13.1548C26.7783 13.6715 26.8591 14.2857 26.7047 14.8621C26.5503 15.4385 26.1732 15.9299 25.6564 16.2283C25.1396 16.5267 24.5254 16.6075 23.949 16.4531C23.3726 16.2986 22.8812 15.9215 22.5828 15.4048L22.4223 15.1268C18.683 15.1362 15.2074 16.1001 11.8811 17.6049L14.4412 20.8241C14.5849 20.9914 14.6899 21.1883 14.7489 21.4008C14.8078 21.6133 14.8191 21.8362 14.782 22.0536C14.7449 22.271 14.6604 22.4776 14.5344 22.6585C14.4084 22.8395 14.244 22.9905 14.053 23.1007L13.3411 23.5117C13.0886 23.6575 12.7991 23.7265 12.508 23.7103C12.2169 23.6941 11.9368 23.5934 11.702 23.4206L6.68125 20.2744C6.59296 20.3235 6.50474 20.3727 6.4166 20.4221C5.72464 20.8124 4.90674 20.9145 4.14004 20.7062C3.37335 20.4979 2.71957 19.996 2.32031 19.3091L0.820313 16.711C0.42535 16.0216 0.31701 15.2046 0.518632 14.436C0.720254 13.6674 1.2157 13.0088 1.89825 12.602C2.96546 11.9664 4.02203 11.3131 5.06751 10.6424C8.90498 8.16006 12.4172 4.92848 14.4926 1.39203L14.3328 1.11534ZM15.6318 0.365336L23.8818 14.6548C23.9813 14.827 24.1451 14.9527 24.3373 15.0042C24.5294 15.0557 24.7341 15.0287 24.9064 14.9293C25.0786 14.8298 25.2043 14.666 25.2558 14.4739C25.3073 14.2817 25.2803 14.077 25.1809 13.9048L16.9309 -0.384664C16.8314 -0.556927 16.6676 -0.682626 16.4755 -0.734109C16.2833 -0.785591 16.0786 -0.758639 15.9064 -0.659183C15.7341 -0.559727 15.6084 -0.395912 15.5569 -0.203778C15.5054 -0.0116438 15.5324 0.193073 15.6318 0.365336ZM15.3453 2.86904C13.2041 6.19238 9.96012 9.16862 6.47775 11.51L9.6525 17.0088C9.89383 16.8868 10.1354 16.7681 10.3771 16.6528C13.8548 14.9723 17.5511 13.7996 21.5666 13.6446L15.3453 2.86904ZM8.31522 17.6926L5.21772 12.3275C4.37363 12.8569 3.52402 13.3775 2.66903 13.8891C2.32425 14.0936 2.07349 14.4252 1.97069 14.8127C1.8679 15.2002 1.92128 15.6125 2.11935 15.961L3.61935 18.5591C4.03185 19.2736 4.95282 19.5247 5.68293 19.1153C6.55248 18.6266 7.43003 18.1523 8.31522 17.6926ZM8.193 19.4519L12.5609 22.1903L12.5919 22.214L13.3038 21.803L13.2907 21.7863L10.4907 18.2656C9.71957 18.6509 8.95336 19.0459 8.19225 19.4506L8.193 19.4519Z" fill="black"/>
</g>
<defs>
<clipPath id="clip0_2_58611">
<rect width="24" height="24" fill="white"/>
</clipPath>
</defs>
</svg>
