<svg width="25" height="25" viewBox="0 0 25 25" fill="none" xmlns="http://www.w3.org/2000/svg">
<g clip-path="url(#clip0_2_72771)">
<path d="M18.1281 7.73239C17.7381 7.34233 17.5098 6.81945 17.4888 6.26832C17.4678 5.71719 17.6556 5.17843 18.0146 4.7598C18.0443 4.72498 18.0598 4.68022 18.0578 4.6345C18.0559 4.58878 18.0368 4.54547 18.0043 4.51325L15.9359 2.44247C15.9017 2.4083 15.8553 2.3891 15.807 2.3891C15.7586 2.3891 15.7123 2.4083 15.6781 2.44247L12.3811 5.73941C12.2595 5.86102 12.1679 6.00931 12.1135 6.1725V6.1725C12.0594 6.33608 11.9678 6.48478 11.8462 6.60682C11.7246 6.72886 11.5762 6.82088 11.4128 6.87558V6.87558C11.2495 6.92999 11.1011 7.02161 10.9792 7.14321L2.52408 15.5965C2.4899 15.6307 2.4707 15.677 2.4707 15.7254C2.4707 15.7737 2.4899 15.8201 2.52408 15.8543L4.59251 17.9227C4.62473 17.9552 4.66804 17.9743 4.71376 17.9763C4.75948 17.9782 4.80424 17.9627 4.83906 17.933C5.25761 17.5736 5.79648 17.3855 6.3478 17.4064C6.89912 17.4273 7.4222 17.6557 7.81232 18.0458C8.20245 18.4359 8.43082 18.959 8.45173 19.5103C8.47263 20.0616 8.28453 20.6005 7.92507 21.019C7.89538 21.0539 7.87994 21.0986 7.88185 21.1443C7.88376 21.1901 7.90288 21.2334 7.93539 21.2656L10.0038 23.334C10.038 23.3682 10.0844 23.3874 10.1327 23.3874C10.1811 23.3874 10.2274 23.3682 10.2616 23.334L18.7172 14.8789C18.8388 14.757 18.9304 14.6086 18.9849 14.4453V14.4453C19.039 14.2817 19.1305 14.133 19.2522 14.011C19.3738 13.889 19.5222 13.7969 19.6856 13.7422V13.7422C19.8488 13.6879 19.9971 13.5963 20.1187 13.4746L23.4156 10.1777C23.4498 10.1435 23.469 10.0971 23.469 10.0488C23.469 10.0004 23.4498 9.95407 23.4156 9.91988L21.3472 7.85144C21.315 7.81894 21.2717 7.79981 21.2259 7.7979C21.1802 7.79599 21.1355 7.81143 21.1006 7.84113C20.6826 8.20081 20.1442 8.38942 19.593 8.36926C19.0419 8.3491 18.5187 8.12165 18.1281 7.73239V7.73239Z" stroke="black" stroke-width="1.49989" stroke-miterlimit="10"/>
<path d="M12.7113 7.47209L11.9375 6.69824"  stroke-width="1.49989" stroke-miterlimit="10" stroke-linecap="round"/>
<path d="M14.7739 9.53524L14.2578 9.01965"  stroke-width="1.49989" stroke-miterlimit="10" stroke-linecap="round"/>
<path d="M16.8349 11.5988L16.3193 11.0827"  stroke-width="1.49989" stroke-miterlimit="10" stroke-linecap="round"/>
<path d="M19.1567 13.92L18.3828 13.1462"  stroke-width="1.49989" stroke-miterlimit="10" stroke-linecap="round"/>
</g>
<defs>
<clipPath id="clip0_2_72771">
<rect width="23.9982" height="23.9982" fill="white" transform="translate(0.96875 0.892334)"/>
</clipPath>
</defs>
</svg>
