<svg width="24" height="24" viewBox="0 0 24 24" fill="none" xmlns="http://www.w3.org/2000/svg">
<g clip-path="url(#clip0_2_40160)">
<path d="M19.6602 5.26793L17.6602 1.80383C17.1052 0.84254 15.8808 0.521777 14.9282 1.07178L1.07177 9.07178C0.119145 9.62178 -0.215278 10.8425 0.339722 11.8038L2.33972 15.2679C3.30101 14.7129 4.52177 15.0474 5.07177 16C5.62177 16.9526 5.30101 18.177 4.33972 18.732L6.33972 22.1961C6.88972 23.1488 8.11914 23.4782 9.07177 22.9282L22.9282 14.9282C23.8808 14.3782 24.2102 13.1488 23.6602 12.1961L21.6602 8.73203C20.7076 9.28203 19.4782 8.95261 18.9282 7.99998C18.3782 7.04735 18.7076 5.81793 19.6602 5.26793ZM17.1982 5.00353C16.5126 6.19609 16.4611 7.72692 17.1961 8.99998C17.9311 10.273 19.2826 10.9939 20.6582 10.9964L21.9282 13.1961L8.07177 21.1961L6.80177 18.9964C7.48734 17.8039 7.53882 16.273 6.80382 15C6.05382 13.7009 4.726 13.0011 3.34177 13.0035L2.07177 10.8038L15.9282 2.80383L17.1982 5.00353ZM12.634 15.0981L14.366 14.0981L15.366 15.8301L13.634 16.8301L12.634 15.0981ZM10.634 11.634L12.366 10.634L13.366 12.366L11.634 13.366L10.634 11.634ZM8.63395 8.16985L10.366 7.16985L11.366 8.9019L9.63395 9.9019L8.63395 8.16985Z" fill="black"/>
</g>
<defs>
<clipPath id="clip0_2_40160">
<rect width="24" height="24" fill="white"/>
</clipPath>
</defs>
</svg>
