<svg width="24" height="24" viewBox="0 0 24 24" fill="none" xmlns="http://www.w3.org/2000/svg">
<g clip-path="url(#clip0_2_62055)">
<path d="M8.40202 11.768C8.17234 11.9006 8.00474 12.119 7.9361 12.3752C7.86745 12.6313 7.90339 12.9043 8.036 13.134L9.036 14.866C9.1686 15.0957 9.38702 15.2633 9.6432 15.332C9.89938 15.4006 10.1723 15.3647 10.402 15.2321C10.6317 15.0995 10.7993 14.881 10.8679 14.6249C10.9366 14.3687 10.9007 14.0957 10.768 13.866L9.76805 12.134C9.63544 11.9043 9.41702 11.7367 9.16084 11.6681C8.90466 11.5994 8.63171 11.6354 8.40202 11.768ZM19.2943 6.63399C19.524 6.50138 19.6916 6.28296 19.7603 6.02678C19.8289 5.7706 19.793 5.49765 19.6604 5.26796L17.6604 1.80386C17.5277 1.57418 17.3093 1.40658 17.0531 1.33794C16.797 1.26929 16.524 1.30523 16.2943 1.43784L0.705869 10.4378C0.476185 10.5704 0.308586 10.7889 0.239943 11.045C0.1713 11.3012 0.207236 11.5742 0.339844 11.8039L2.33984 15.268C2.47245 15.4976 2.69087 15.6652 2.94705 15.7339C3.20323 15.8025 3.47618 15.7666 3.70587 15.634C3.93555 15.5014 4.20851 15.4654 4.46469 15.5341C4.72087 15.6027 4.93929 15.7703 5.07189 16C5.2045 16.2297 5.24044 16.5027 5.17179 16.7588C5.10315 17.015 4.93555 17.2334 4.70587 17.366C4.47618 17.4986 4.30859 17.7171 4.23994 17.9732C4.1713 18.2294 4.20724 18.5024 4.33984 18.7321L6.33984 22.1962C6.47245 22.4259 6.69087 22.5934 6.94705 22.6621C7.20323 22.7307 7.47618 22.6948 7.70587 22.5622L23.2943 13.5622C23.524 13.4296 23.6916 13.2112 23.7603 12.955C23.8289 12.6988 23.793 12.4259 23.6604 12.1962L21.6604 8.73206C21.5277 8.50238 21.3093 8.33478 21.0531 8.26614C20.797 8.1975 20.524 8.23343 20.2943 8.36604C20.0646 8.49865 19.7917 8.53458 19.5355 8.46594C19.2793 8.3973 19.0609 8.2297 18.9283 8.00001C18.7957 7.77033 18.7598 7.49737 18.8284 7.24119C18.897 6.98502 19.0646 6.7666 19.2943 6.63399ZM17.5183 5.55782C17.1218 6.02944 16.8802 6.61169 16.8262 7.22544C16.7723 7.83919 16.9086 8.45468 17.2166 8.98825C17.5247 9.52183 17.9896 9.94761 18.5481 10.2077C19.1066 10.4679 19.7316 10.5497 20.3383 10.4422L21.4283 12.3301L12.768 17.3301C12.6354 17.1005 12.417 16.9329 12.1608 16.8642C11.9047 16.7956 11.6317 16.8315 11.402 16.9641C11.1723 17.0967 11.0047 17.3151 10.9361 17.5713C10.8675 17.8275 10.9034 18.1005 11.036 18.3301L7.57189 20.3301L6.48189 18.4422C6.87835 17.9706 7.11999 17.3883 7.17396 16.7746C7.22794 16.1608 7.09163 15.5454 6.78357 15.0118C6.47551 14.4782 6.01064 14.0524 5.45213 13.7923C4.89362 13.5321 4.26856 13.4503 3.66189 13.5578L2.57189 11.6699L6.036 9.66989C6.1686 9.89957 6.38702 10.0672 6.6432 10.1358C6.89938 10.2045 7.17234 10.1685 7.40202 10.0359C7.63171 9.9033 7.7993 9.68488 7.86795 9.42871C7.93659 9.17253 7.90066 8.89957 7.76805 8.66989L16.4283 3.66989L17.5183 5.55782Z" fill="black"/>
</g>
<defs>
<clipPath id="clip0_2_62055">
<rect width="24" height="24" fill="white"/>
</clipPath>
</defs>
</svg>
